<?xml version="1.0" standalone="no"?>
<!DOCTYPE svg PUBLIC "-//W3C//DTD SVG 20010904//EN"
 "http://www.w3.org/TR/2001/REC-SVG-20010904/DTD/svg10.dtd">
<svg version="1.0" xmlns="http://www.w3.org/2000/svg"
 width="180.000000pt" height="180.000000pt" viewBox="0 0 180.000000 180.000000"
 preserveAspectRatio="xMidYMid meet">

<g transform="translate(0.000000,180.000000) scale(0.100000,-0.100000)"
fill="#000000" stroke="none">
<path d="M269 1145 c-29 -16 -43 -41 -32 -58 4 -6 6 -52 4 -101 -2 -100 20
-213 46 -233 23 -18 53 2 54 35 1 25 2 24 13 -10 6 -20 14 -40 18 -44 13 -12
38 17 38 45 0 15 4 31 9 36 5 6 11 28 13 50 l3 40 32 -55 c17 -30 35 -68 38
-83 10 -37 48 -35 53 3 4 30 22 52 22 28 0 -9 5 -29 10 -43 8 -21 13 -25 24
-16 8 6 31 9 57 6 81 -10 109 24 113 142 2 61 29 40 43 -34 15 -78 30 -113 48
-113 8 0 17 12 20 28 21 97 29 112 56 112 24 0 27 -5 39 -60 9 -41 19 -64 32
-71 26 -14 48 5 48 41 0 15 6 33 14 39 11 9 16 6 24 -16 6 -16 12 -37 14 -48
2 -11 10 -20 18 -20 8 0 16 9 18 20 2 11 12 45 22 75 l18 54 25 -56 c14 -31
28 -65 32 -77 10 -32 45 -27 45 7 1 28 25 69 33 55 2 -4 8 -24 12 -43 13 -60
17 -61 123 -24 53 19 105 34 115 34 9 0 18 6 18 13 1 6 3 19 3 27 1 8 8 27 15
42 12 24 11 32 -7 68 -11 23 -18 48 -15 56 3 8 -2 25 -10 37 -9 14 -12 29 -7
38 8 15 -4 58 -17 60 -64 11 -177 -10 -231 -41 l-33 -20 -41 26 c-78 50 -126
65 -190 60 -63 -5 -94 -23 -100 -57 -3 -17 -8 -16 -51 15 -58 41 -90 50 -120
34 -12 -6 -30 -12 -40 -13 -10 -1 -23 -7 -28 -12 -8 -8 -23 -6 -53 8 -44 20
-111 25 -121 9 -4 -6 -23 -7 -45 -4 -34 6 -40 4 -53 -22 -14 -27 -15 -27 -26
-6 -11 20 -36 33 -76 38 -11 1 -29 5 -40 8 -11 3 -32 -1 -46 -9z m71 -34 c0
-15 -46 -29 -63 -19 -23 12 -21 23 6 35 22 11 57 1 57 -16z m523 13 c18 -9 51
-32 74 -50 46 -38 58 -41 67 -19 3 8 15 15 26 15 15 0 20 -7 20 -27 0 -15 5
-65 12 -111 11 -78 11 -85 -6 -98 -34 -24 -54 -2 -61 69 l-7 62 -50 -1 c-27
-1 -51 -4 -53 -6 -2 -1 1 -25 6 -52 6 -35 6 -52 -2 -56 -6 -4 -10 -11 -10 -16
1 -5 -5 -9 -11 -9 -10 0 -38 100 -47 166 -1 4 -10 9 -21 12 -16 4 -20 0 -20
-18 0 -38 -19 -39 -35 -2 -16 39 -29 52 -69 67 -25 9 -21 3 28 -53 59 -67 76
-110 57 -145 -13 -25 -73 -39 -104 -25 -15 7 -28 7 -39 -1 -9 -5 -19 -8 -22
-5 -8 8 -36 147 -36 179 0 38 28 48 40 14 6 -14 10 -32 10 -40 0 -29 29 -83
50 -94 27 -14 70 -5 70 15 0 8 -39 55 -86 104 -55 58 -84 97 -82 108 5 28 53
28 112 -1 64 -31 62 -31 69 -5 9 34 32 16 37 -29 4 -30 9 -39 17 -34 10 6 10
17 3 43 -8 28 -7 36 7 47 21 15 18 15 56 -4z m220 5 c6 6 18 11 28 11 23 0
149 -65 178 -91 22 -20 25 -21 36 -6 6 9 24 21 39 26 35 14 152 41 176 41 21
0 36 -29 17 -35 -6 -2 -43 -13 -82 -24 -81 -24 -100 -35 -91 -49 4 -7 21 -4
49 8 24 11 61 22 84 26 36 5 43 3 53 -16 6 -12 9 -24 7 -26 -9 -9 -111 -34
-138 -34 -25 0 -60 -42 -46 -56 3 -4 44 7 90 24 68 25 88 28 100 19 25 -20 26
-77 1 -77 -8 0 -48 -11 -87 -24 -119 -39 -134 -41 -143 -14 -4 13 -10 52 -13
88 l-6 65 -40 -3 c-22 -2 -41 -5 -43 -7 -2 -2 8 -26 22 -54 29 -55 34 -101 12
-101 -19 0 -28 14 -60 93 -22 53 -33 67 -50 67 -20 0 -21 -5 -21 -77 0 -62 -3
-78 -15 -78 -10 0 -18 22 -28 79 -9 58 -18 83 -35 97 -20 17 -20 20 -6 29 14
8 19 50 10 77 -1 1 -13 -4 -28 -12 -20 -10 -31 -11 -47 -3 -20 11 -20 11 3 29
18 15 27 16 43 8 14 -8 23 -8 31 0z m-660 -46 c13 -21 34 -54 46 -73 l23 -35
-7 45 c-3 25 -8 55 -12 67 -7 30 20 41 43 18 23 -22 33 -82 34 -192 0 -70 -3
-93 -13 -93 -7 0 -35 43 -63 96 -27 53 -52 98 -56 100 -5 3 -9 -30 -9 -73 -3
-120 -2 -118 -25 -121 -18 -3 -22 4 -28 44 -8 59 -8 217 0 238 11 28 43 18 67
-21z m-100 -90 c4 -43 9 -94 13 -113 4 -28 2 -37 -14 -47 -16 -9 -24 -9 -38 1
-15 11 -19 32 -22 110 -5 101 3 126 38 126 14 0 18 -13 23 -77z m637 -63 c0
-5 -9 -10 -19 -10 -11 0 -23 5 -26 10 -4 6 5 10 19 10 14 0 26 -4 26 -10z"/>
<path d="M865 1043 c9 -36 6 -34 54 -40 57 -8 53 11 -10 43 l-52 26 8 -29z"/>
<path d="M1140 1060 c6 -11 17 -20 24 -20 7 0 29 -2 47 -5 34 -6 34 -6 -11 19
-57 32 -75 33 -60 6z"/>
<path d="M271 974 c0 -11 3 -14 6 -6 3 7 2 16 -1 19 -3 4 -6 -2 -5 -13z"/>
<path d="M350 668 c0 -6 8 -35 17 -65 19 -62 47 -73 58 -23 4 17 10 30 15 30
5 0 11 -13 15 -30 11 -50 39 -39 58 23 21 65 21 77 3 77 -8 0 -19 -15 -26 -32
l-12 -33 -14 33 c-18 40 -32 41 -47 2 -6 -16 -14 -30 -17 -30 -3 0 -11 14 -17
30 -11 29 -33 42 -33 18z"/>
<path d="M557 674 c-4 -4 -7 -34 -7 -66 0 -51 2 -59 18 -56 14 3 17 14 17 62
0 55 -11 77 -28 60z"/>
<path d="M607 673 c-12 -11 -8 -21 13 -26 16 -4 20 -14 20 -51 0 -34 4 -46 15
-46 11 0 15 12 15 46 0 37 4 47 20 51 11 3 20 12 20 19 0 10 -14 14 -48 14
-27 0 -52 -3 -55 -7z"/>
<path d="M730 615 c0 -51 3 -65 15 -65 9 0 15 10 15 26 0 21 4 25 23 22 14 -2
23 -11 25 -25 2 -13 10 -23 18 -23 12 0 14 13 12 62 -2 38 -8 63 -15 66 -8 2
-13 -6 -13 -22 0 -21 -5 -26 -25 -26 -20 0 -25 5 -25 25 0 16 -6 25 -15 25
-12 0 -15 -14 -15 -65z"/>
<path d="M917 673 c-4 -3 -7 -33 -7 -65 0 -46 3 -58 16 -58 9 0 18 9 21 20 3
11 8 20 12 20 3 0 12 -9 19 -20 7 -11 21 -20 33 -20 l20 0 -20 29 c-25 34 -26
54 -6 71 8 7 15 16 15 21 0 16 -27 9 -46 -12 l-18 -20 -8 20 c-7 21 -19 26
-31 14z"/>
<path d="M1047 673 c-4 -3 -7 -33 -7 -65 l0 -58 50 0 c38 0 50 4 50 15 0 10
-10 15 -30 15 -36 0 -40 17 -5 22 14 2 26 8 26 13 0 6 -12 11 -26 13 -35 5
-31 22 5 22 20 0 30 5 30 15 0 11 -11 15 -43 15 -24 0 -47 -3 -50 -7z"/>
<path d="M1167 674 c-4 -4 -7 -34 -7 -66 l0 -59 48 3 c49 3 61 21 18 26 -22 3
-25 9 -28 49 -3 44 -15 62 -31 47z"/>
<path d="M1270 666 c0 -7 10 -36 21 -65 29 -68 48 -67 77 7 26 68 26 72 7 72
-8 0 -22 -17 -31 -37 l-17 -38 -15 38 c-14 36 -42 51 -42 23z"/>
<path d="M1410 615 c0 -51 3 -65 15 -65 12 0 15 14 15 65 0 51 -3 65 -15 65
-12 0 -15 -14 -15 -65z"/>
<path d="M1464 666 c-3 -7 -4 -35 -2 -62 2 -37 7 -50 21 -52 13 -3 17 4 17 30
l1 33 27 -33 c41 -49 52 -42 52 33 0 51 -3 65 -15 65 -10 0 -15 -10 -15 -32
l0 -33 -31 33 c-33 35 -47 40 -55 18z"/>
</g>
</svg>
